<svg height="512pt" viewBox="-28 0 512 512" width="512pt" xmlns="http://www.w3.org/2000/svg"><path d="m389.386719 66.808594c-43.082031-43.082032-100.363281-66.808594-161.289063-66.808594-60.925781 0-118.207031 23.726562-161.289062 66.808594-43.082032 43.082031-66.808594 100.363281-66.808594 161.289062 0 60.925782 23.726562 118.207032 66.808594 161.289063 39.53125 39.53125 91.015625 62.765625 146.304687 66.324219v56.289062l15.527344-.566406c30.191406-1.097656 59.964844-10.222656 88.503906-27.125 26.679688-15.800782 50.933594-37.558594 72.089844-64.664063 42.554687-54.535156 66.960937-124.347656 66.960937-191.546875 0-60.925781-23.726562-118.207031-66.808593-161.289062zm-23.777344 334.398437c-34.390625 44.066407-78.3125 72.132813-122.527344 78.820313v-53.800782h-14.984375c-109.25 0-198.128906-88.878906-198.128906-198.128906s88.878906-198.128906 198.128906-198.128906 198.128906 88.878906 198.128906 198.128906c0 60.644532-22.09375 123.742188-60.617187 173.109375zm0 0"/><path d="m92.085938 275.476562h44.890624v59.578126l18.707032-4.796876c2.203125-.566406 54.039062-14.425781 65.039062-66.679687l.324219-1.527344v-115.535156h-128.960937zm29.96875-98.992187h69.023437v82.355469c-3.929687 16.492187-14.480469 27.050781-24.132813 33.503906v-46.835938h-44.890624zm0 0"/><path d="m244.027344 146.515625v128.960937h44.890625v59.578126l18.707031-4.796876c2.199219-.566406 54.039062-14.425781 65.039062-66.679687l.324219-1.527344v-115.535156zm98.992187 112.324219c-3.929687 16.492187-14.480469 27.050781-24.132812 33.503906v-46.835938h-44.894531v-69.023437h69.027343zm0 0"/></svg>