<svg id="Layer_1" enable-background="new 0 0 56.689 56.689" height="512" viewBox="0 0 56.689 56.689" width="512" xmlns="http://www.w3.org/2000/svg"><g><path d="m40.302 12.067-15.318-.006c-1.201 0-2.331.467-3.182 1.318-.85.849-1.318 1.979-1.317 3.182 0 1.201.467 2.332 1.317 3.182.85.851 1.98 1.318 3.182 1.318h4.281l-15.888 15.887c-1.755 1.755-1.755 4.609 0 6.364s4.608 1.755 6.363-.001l15.887-15.887.001 4.28c0 1.201.467 2.331 1.317 3.182.85.85 1.98 1.318 3.183 1.318 1.2.001 2.331-.467 3.182-1.318.849-.848 1.317-1.98 1.317-3.181l.002-15.144c.017-.478-.023-1.391-.558-2.311-1.151-1.976-3.529-2.168-3.769-2.183zm2.328 4.496v15.143c-.002 1.336-1.168 2.499-2.502 2.499-.669 0-1.296-.26-1.768-.732-.473-.472-.733-1.101-.732-1.768v-9.109l-19.302 19.302c-.975.975-2.561.975-3.535 0s-.975-2.561 0-3.535l19.302-19.302h-9.109c-.668 0-1.295-.26-1.768-.732s-.732-1.1-.732-1.768c0-1.338 1.164-2.499 2.5-2.5h15.062c.113-.004 1.419-.03 2.156 1.009.431.607.438 1.253.428 1.493z"/></g></svg>