<svg id="Layer_1" enable-background="new 0 0 56.689 56.689" height="512" viewBox="0 0 56.689 56.689" width="512" xmlns="http://www.w3.org/2000/svg"><g><path d="m16.385 44.621 15.319.006c1.201 0 2.331-.467 3.182-1.318.85-.849 1.318-1.979 1.317-3.182 0-1.201-.467-2.332-1.317-3.182-.85-.851-1.98-1.318-3.182-1.318h-4.282l15.889-15.887c1.755-1.755 1.755-4.609 0-6.364s-4.608-1.755-6.363 0l-15.888 15.888-.001-4.281c0-1.201-.467-2.331-1.317-3.182-.85-.85-1.98-1.318-3.183-1.318-1.2-.001-2.331.467-3.182 1.318-.849.85-1.317 1.981-1.317 3.182l-.002 15.144c-.012.329-.029 1.763 1.046 3.005 1.258 1.452 3.013 1.488 3.281 1.489zm-2.327-4.495v-15.143c.001-1.337 1.167-2.499 2.501-2.499.669 0 1.296.259 1.768.732.473.472.733 1.101.732 1.768v9.11l19.302-19.302c.975-.975 2.561-.975 3.535 0 .975.975.975 2.561 0 3.535l-19.302 19.301h9.11c.668 0 1.295.26 1.768.732s.732 1.1.732 1.768c0 1.338-1.164 2.499-2.5 2.5h-15.062c-.28-.024-.892-.117-1.479-.563-.915-.695-1.076-1.721-1.105-1.939z"/></g></svg>