<svg id="Capa_1" enable-background="new 0 0 512 512" height="512" viewBox="0 0 512 512" width="512" xmlns="http://www.w3.org/2000/svg"><path d="m475.767 256 23.697-69.658c2.142-6.296-.117-13.25-5.55-17.085l-60.097-42.427-21.814-70.255c-1.969-6.341-7.888-10.655-14.512-10.551l-73.556.916-58.97-43.966c-5.32-3.967-12.613-3.967-17.932 0l-58.965 43.966-73.553-.92c-6.625-.091-12.543 4.209-14.513 10.551l-21.815 70.254-60.1 42.428c-5.433 3.835-7.691 10.789-5.55 17.084l23.696 69.663-23.696 69.658c-2.142 6.296.117 13.25 5.55 17.085l60.097 42.427 21.813 70.255c1.969 6.341 7.884 10.62 14.512 10.551l73.556-.916 58.97 43.966c2.66 1.983 5.813 2.975 8.966 2.975s6.307-.991 8.966-2.975l58.966-43.965 73.553.92c6.637.101 12.544-4.208 14.513-10.551l21.815-70.254 60.099-42.428c5.433-3.835 7.691-10.789 5.551-17.084zm-30.045 4.831 21.727 63.878-55.101 38.898c-2.699 1.905-4.694 4.649-5.674 7.806l-20.008 64.431-67.439-.844c-3.283-.039-6.513 1.003-9.153 2.974l-54.074 40.317-54.077-40.318c-2.592-1.933-5.736-2.975-8.966-2.975-.062 0-.125 0-.187.001l-67.442.84-20.005-64.431c-.98-3.155-2.975-5.899-5.674-7.806l-55.099-38.898 21.728-63.872c1.065-3.133 1.065-6.529 0-9.661l-21.727-63.877 55.101-38.899c2.7-1.905 4.694-4.649 5.674-7.806l20.007-64.431 67.44.844c3.294.058 6.512-1.004 9.154-2.974l54.073-40.318 54.077 40.318c2.592 1.933 5.736 2.975 8.966 2.975.063 0 .125 0 .187-.001l67.442-.84 20.006 64.431c.979 3.155 2.975 5.899 5.674 7.806l55.099 38.898-21.729 63.872c-1.066 3.133-1.066 6.53 0 9.662z"/><path d="m344.389 167.612c-5.857-5.857-15.355-5.857-21.213 0l-155.564 155.564c-5.858 5.857-5.858 15.355 0 21.213 2.929 2.929 6.768 4.394 10.606 4.394s7.678-1.465 10.606-4.394l155.564-155.564c5.859-5.858 5.859-15.356.001-21.213z"/><path d="m224.18 224.18c17.545-17.545 17.545-46.094 0-63.639-17.544-17.546-46.094-17.546-63.64 0-17.544 17.545-17.544 46.094 0 63.639 8.772 8.773 20.296 13.159 31.82 13.159s23.048-4.385 31.82-13.159zm-42.427-42.426c2.833-2.833 6.6-4.394 10.607-4.394s7.773 1.561 10.607 4.394c2.833 2.833 4.393 6.6 4.393 10.606s-1.56 7.773-4.393 10.606-6.6 4.394-10.607 4.394-7.773-1.561-10.606-4.394c-5.848-5.847-5.848-15.363-.001-21.212z"/><path d="m287.82 287.821c-17.546 17.545-17.546 46.094 0 63.639 8.772 8.772 20.296 13.159 31.819 13.159s23.047-4.387 31.819-13.159c17.546-17.545 17.546-46.094 0-63.639-17.544-17.545-46.093-17.545-63.638 0zm42.426 42.426c-2.833 2.833-6.6 4.394-10.606 4.394s-7.773-1.561-10.606-4.394-4.394-6.6-4.394-10.606 1.561-7.773 4.394-10.606 6.6-4.394 10.606-4.394 7.773 1.561 10.606 4.394 4.394 6.6 4.394 10.606-1.561 7.773-4.394 10.606z"/></svg>