<svg height="512pt" viewBox="0 -7 512.00026 512" width="512pt" xmlns="http://www.w3.org/2000/svg"><path d="m389.5 498.402344c-6.398438 0-12.820312-1.5625-18.742188-4.726563l-110.183593-58.882812c-2.863281-1.527344-6.28125-1.527344-9.144531 0l-110.1875 58.882812c-13.457032 7.191407-29.515626 6.117188-41.910157-2.800781-12.625-9.078125-18.847656-24.300781-16.242187-39.726562l21.042968-124.710938c.582032-3.445312-.527343-6.941406-2.960937-9.355469l-89.144531-88.316406c-10.988282-10.890625-14.804688-26.824219-9.960938-41.589844 4.789063-14.597656 17.125-25.046875 32.191406-27.273437l123.191407-18.195313c3.238281-.476562 6.054687-2.578125 7.53125-5.621093l55.097656-113.464844c6.773437-13.953125 20.539063-22.621094 35.921875-22.621094s29.148438 8.667969 35.925781 22.621094l55.09375 113.464844c1.476563 3.039062 4.292969 5.144531 7.53125 5.621093l123.191407 18.195313c15.066406 2.226562 27.402343 12.675781 32.191406 27.273437 4.84375 14.761719 1.027344 30.699219-9.960938 41.585938l-89.144531 88.320312c-2.433594 2.414063-3.542969 5.910157-2.960937 9.351563l21.042968 124.710937c2.605469 15.425781-3.617187 30.648438-16.242187 39.730469-6.9375 4.992188-15.03125 7.527344-23.167969 7.527344zm-133.5-94.761719c6.425781 0 12.851562 1.5625 18.710938 4.695313l110.183593 58.878906c4.816407 2.570312 8.777344.375 10.257813-.691406 1.238281-.894532 5.207031-4.28125 4.179687-10.382813l-21.042969-124.710937c-2.207031-13.054688 2.066407-26.382813 11.425782-35.65625l89.144531-88.320313c4.3125-4.273437 3.058594-9.441406 2.570313-10.925781-.597657-1.816406-2.578126-6.136719-8.066407-6.949219l-123.195312-18.191406c-13.058594-1.929688-24.320313-10.226563-30.136719-22.195313l-55.09375-113.46875c-2.507812-5.164062-7.085938-5.722656-8.9375-5.722656s-6.429688.558594-8.9375 5.722656l-55.09375 113.46875c-5.8125 11.96875-17.078125 20.265625-30.136719 22.195313l-123.191406 18.191406c-5.492187.8125-7.472656 5.132813-8.070313 6.949219-.484374 1.484375-1.738281 6.652344 2.570313 10.925781l89.144531 88.320313c9.359375 9.269531 13.632813 22.601562 11.429688 35.65625l-21.042969 124.707031c-1.03125 6.105469 2.9375 9.492187 4.175781 10.386719 1.480469 1.0625 5.449219 3.261718 10.257813.691406l110.183593-58.878906c5.859376-3.128907 12.285157-4.695313 18.710938-4.695313zm0 0"/></svg>