<?xml version="1.0" encoding="iso-8859-1"?>
<!-- Generator: Adobe Illustrator 19.0.0, SVG Export Plug-In . SVG Version: 6.00 Build 0)  -->
<svg version="1.1" id="Capa_1" xmlns="http://www.w3.org/2000/svg" xmlns:xlink="http://www.w3.org/1999/xlink" x="0px" y="0px"
	 viewBox="0 0 512 512" style="enable-background:new 0 0 512 512;" xml:space="preserve">
<g>
	<g>
		<path d="M479.989,0H264.885C126.133,0,10.037,104.32,0.661,237.472c-5.28,74.336,21.792,147.04,74.272,199.52
			C123.125,485.216,188.405,512,256.341,512c6.016,0,12.128-0.224,18.176-0.64c133.152-9.44,237.472-125.504,237.472-264.256V32
			C511.989,14.368,497.653,0,479.989,0z M479.989,247.104c0,122.048-91.264,224.096-207.712,232.32
			c-65.184,4.704-128.736-19.072-174.688-65.056c-45.92-45.92-69.632-109.568-65.024-174.656C40.789,123.264,142.837,32,264.885,32
			h215.104V247.104z"/>
	</g>
</g>
<g>
	<g>
		<path d="M408.373,194.4c-4.704-2.944-10.592-3.232-15.552-0.704l-40.832,20.416V176c0-8.832-7.168-16-16-16h-192
			c-8.832,0-16,7.168-16,16v160c0,8.832,7.168,16,16,16h192c8.832,0,16-7.168,16-16v-38.112l40.864,20.416
			c4.96,2.528,10.848,2.208,15.552-0.672c4.704-2.944,7.584-8.096,7.584-13.632v-96C415.989,202.464,413.109,197.312,408.373,194.4z
			 M383.989,278.112l-40.832-20.416c-2.272-1.12-4.736-1.696-7.168-1.696c-2.944,0-5.856,0.8-8.416,2.368
			c-4.704,2.944-7.584,8.096-7.584,13.632v48h-160V192h160v48c0,5.536,2.88,10.688,7.584,13.6c2.56,1.6,5.472,2.4,8.416,2.4
			c2.432,0,4.896-0.576,7.168-1.696l40.832-20.416V278.112z"/>
	</g>
</g>
<g>
</g>
<g>
</g>
<g>
</g>
<g>
</g>
<g>
</g>
<g>
</g>
<g>
</g>
<g>
</g>
<g>
</g>
<g>
</g>
<g>
</g>
<g>
</g>
<g>
</g>
<g>
</g>
<g>
</g>
</svg>
