<svg xmlns="http://www.w3.org/2000/svg" xmlns:xlink="http://www.w3.org/1999/xlink" version="1.1" id="Layer_1" x="0px" y="0px" viewBox="0 0 502 502" style="enable-background:new 0 0 502 502;" xml:space="preserve">
<g>
	<g>
		<g>
			<path d="M463,116.612V46c0-5.522-4.477-10-10-10h-72.455C341.526,12.444,296.801,0,251,0c-45.801,0-90.526,12.444-129.545,36H45     c-5.523,0-10,4.478-10,10v77.1C12.098,161.704,0,205.86,0,251c0,67.045,26.108,130.076,73.516,177.483     C120.924,475.892,183.956,502,251,502s130.076-26.108,177.484-73.517C475.892,381.076,502,318.045,502,251     C502,203.181,488.519,156.785,463,116.612z M474,209.5c0,58.725-47.776,106.5-106.5,106.5c-53.604,0-98.078-39.81-105.427-91.417     c-0.083-0.585-0.168-1.169-0.241-1.756C261.285,218.46,261,214.013,261,209.5c0-58.725,47.776-106.5,106.5-106.5     S474,150.775,474,209.5z M288.629,308.407L251,346.036l-37.629-37.629c16.602-13.229,29.475-30.259,37.629-49.508     C259.154,278.148,272.027,295.177,288.629,308.407z M408.988,56H443v33.381l0.019,0.059     c-10.278-12.181-21.716-23.409-34.087-33.457L408.988,56z M129.522,54.501C165.95,31.93,207.957,20,251,20     c43.043,0,85.05,11.93,121.478,34.501c18,11.152,34.514,24.888,48.881,40.555C405.008,87.33,386.752,83,367.5,83     c-52.276,0-97.247,31.875-116.5,77.209C231.747,114.875,186.776,83,134.5,83c-19.244,0-37.494,4.327-53.84,12.047     C95.006,79.401,111.472,65.685,129.522,54.501z M55,94.225V56h37.998l0.059-0.019C79.048,67.353,66.26,80.22,54.98,94.29     L55,94.225z M134.5,103c58.724,0,106.5,47.775,106.5,106.5c0,4.513-0.285,8.96-0.832,13.327     c-0.073,0.587-0.158,1.171-0.241,1.756C232.578,276.19,188.104,316,134.5,316C75.776,316,28,268.225,28,209.5     C28,150.775,75.776,103,134.5,103z M251,482c-122.996,0-223.837-96.628-230.624-217.957C40.781,306.567,84.267,336,134.5,336     c22.489,0,43.622-5.906,61.941-16.238l47.488,47.488c1.953,1.952,4.512,2.929,7.071,2.929c2.559,0,5.119-0.977,7.071-2.929     l47.488-47.488C323.878,330.094,345.011,336,367.5,336c50.233,0,93.719-29.433,114.124-71.957     C474.837,385.372,373.996,482,251,482z"/>
			
			
			<path d="M134.5,248.625c21.574,0,39.125-17.552,39.125-39.125s-17.551-39.125-39.125-39.125     c-21.574,0-39.125,17.552-39.125,39.125S112.926,248.625,134.5,248.625z M134.5,190.375c10.545,0,19.125,8.579,19.125,19.125     s-8.58,19.125-19.125,19.125s-19.125-8.579-19.125-19.125S123.955,190.375,134.5,190.375z"/>
			<path d="M367.5,170.375c-21.574,0-39.125,17.552-39.125,39.125s17.551,39.125,39.125,39.125     c21.574,0,39.125-17.552,39.125-39.125S389.074,170.375,367.5,170.375z M367.5,228.625c-10.545,0-19.125-8.579-19.125-19.125     s8.58-19.125,19.125-19.125c10.545,0,19.125,8.579,19.125,19.125S378.045,228.625,367.5,228.625z"/>
			
		</g>
	</g>
</g>
<g>
</g>
<g>
</g>
<g>
</g>
<g>
</g>
<g>
</g>
<g>
</g>
<g>
</g>
<g>
</g>
<g>
</g>
<g>
</g>
<g>
</g>
<g>
</g>
<g>
</g>
<g>
</g>
<g>
</g>
</svg>