<?xml version="1.0" encoding="iso-8859-1"?>
<!-- Generator: Adobe Illustrator 19.0.0, SVG Export Plug-In . SVG Version: 6.00 Build 0)  -->
<svg version="1.1" id="Capa_1" xmlns="http://www.w3.org/2000/svg" xmlns:xlink="http://www.w3.org/1999/xlink" x="0px" y="0px"
	 viewBox="0 0 511.997 511.997" style="enable-background:new 0 0 511.997 511.997;" xml:space="preserve">
<g>
	<g>
		<path d="M440.051,476.573c-23.406-117.444-22.066-113.187-24.967-120.008c-4.418-10.663-12.708-19.63-24.204-25.321
			c-1.794-0.883-67.033-23.429-67.133-23.462l-15.985-10.965h16.505c31.247,0,56.669-25.422,56.669-56.669v-47.666
			c5.87-8.929,5.878-20.17,0-29.111c-1.81-16.483,9.287-78.665-32.795-123.819c-46.993-52.024-133.335-52.723-181.456-2.118
			c-2.854,3.001-2.735,7.749,0.267,10.605c3.001,2.855,7.75,2.737,10.605-0.267C216.38,6.948,289.49,0.513,337.133,49.743
			c35.636,38.198,27.706,92.755,28.803,101.979c-3.78-1.364-7.774-2.021-11.99-1.903v-4.055c0-9.261-5.951-17.484-14.807-20.465
			c-12.156-4.093-19.246-18.116-21.73-23.954c-2.251-5.293-7.177-9.027-12.856-9.747c-43.068-5.457-51.355,7.57-85.045,28.544
			c-10.202,6.354-20.29,8.027-29.987,4.979c-16.623-5.232-33.43,6.96-33.43,24.261v0.439c-3.075-0.086-6.076,0.229-9.164,1.03
			c0.65-9.554-3.372-43.792,12.013-76.237c1.774-3.742,0.179-8.216-3.564-9.99c-3.739-1.773-8.215-0.18-9.991,3.564
			c-17.87,37.69-12.488,75.991-13.458,91.577c-9.641,10.502-9.638,25.835,0,36.332v44.056c0,31.247,25.423,56.669,56.67,56.669
			h15.679l-15.984,10.964c-71.969,24.994-66.041,22.59-69.736,24.836c-12.859,7.222-21.662,19.003-24.718,34.191
			C70.427,484.404,71.33,477.667,71.487,484.073c0.4,16.967,11.207,27.925,30.833,27.925h206.122c4.144,0,7.501-3.357,7.501-7.501
			c0-4.144-3.357-7.501-7.501-7.501H155.073v-68.732c0-4.144-3.357-7.501-7.501-7.501c-4.144,0-7.501,3.357-7.501,7.501v68.732
			h-37.75c-11.661,0-17.299-4.938-15.581-17.711l21.793-109.457c2.622-10.98,7.671-19.176,18.716-24.852
			c5.267-2.612,5.538-2.041,9.737-3.495l25.184-8.747l13.354,24.651c1.974,3.643,6.527,4.997,10.168,3.022
			c3.643-1.973,4.996-6.526,3.022-10.168l-12.185-22.493l11.488-3.991c64.281,118.662,59.958,110.734,60.453,111.454
			c1.698,2.462,4.405,3.953,7.555,3.953c2.844,0,5.617-1.273,7.416-3.755c0.699-0.963-3.294,6.206,60.473-111.686
			c0.951,0.33,10.21,3.547,11.486,3.99l-60.724,112.33c-8.004,14.807-29.289,14.809-37.304,0.016l-31.984-59.039
			c-1.974-3.643-6.527-4.998-10.168-3.022c-3.644,1.974-4.996,6.526-3.022,10.168l31.984,59.04
			c13.69,25.265,50.03,25.244,63.693-0.028l61.887-114.478c26.424,9.175,30.874,10.522,31.34,10.598
			c0.166,0.075,0.45,0.196,0.916,0.388c0.984,0.411,1.449,0.644,1.421,0.631c6.419,2.975,11.763,7.552,15.279,13.164
			c4.779,7.625,2.979,3.296,26.578,121.805c1.703,12.661-3.826,17.711-15.582,17.711h-37.75v-68.732
			c0-4.144-3.357-7.501-7.501-7.501c-4.144,0-7.501,3.357-7.501,7.501v68.732h-13.511c-4.144,0-7.501,3.357-7.501,7.501
			s3.357,7.501,7.501,7.501h66.265c19.625,0,30.431-10.954,30.832-27.92C440.621,480.983,440.272,477.686,440.051,476.573z
			 M353.944,164.823c13.459-0.713,21.696,12.946,12.505,21.778c-2.956,2.857-7.535,4.683-12.505,4.417V164.823z M353.37,206.017
			c3.682,0.198,8.275-0.319,12.565-1.852v35.981h-0.001c0,22.975-18.692,41.667-41.667,41.667h-19.2v-1.13
			c0.483-0.375,11.128-6.064,21.835-17.372c0.094-0.1,0.432-0.461,0.338-0.361C341.189,248.328,351.076,227.783,353.37,206.017z
			 M171.093,149.375c-0.002-7.15,6.967-12.134,13.925-9.948c23.809,7.49,40.487-4.953,58.963-17.344
			c20.438-13.705,28.893-19.382,58.685-15.606c0.406,0.052,0.765,0.334,0.937,0.736c4.07,9.567,13.477,26.486,30.749,32.302
			c2.745,0.924,4.59,3.435,4.59,6.246v8.47l-8.972,5.296c-3.525-5.079-9.389-8.417-16.025-8.417h-34.327
			c-8.096,0-15.052,4.962-17.998,12.002h-14.031c-2.945-7.04-9.901-12.002-17.999-12.002h-34.327
			c-6.636,0-12.501,3.339-16.025,8.417l-8.145-4.808V149.375z M318.444,170.613v14.939c0,6.507-5.294,11.801-11.801,11.801h-19.729
			c-6.506,0-11.8-5.294-11.8-11.801v-14.939h0.001c0-2.439,2.061-4.501,4.501-4.501h34.327
			C316.383,166.113,318.444,168.174,318.444,170.613z M234.089,170.612v14.939c0,6.507-5.294,11.801-11.8,11.801H202.56
			c-6.506,0-11.8-5.294-11.8-11.801v-14.939c0-2.439,2.061-4.501,4.501-4.501h34.327
			C232.027,166.112,234.089,168.173,234.089,170.612z M175.759,174.897v10.656c0,14.779,12.023,26.803,26.803,26.803h19.729
			c14.778,0,26.802-12.023,26.802-26.803v-7.438h11.022v7.438c0,14.779,12.023,26.803,26.802,26.803h19.729
			c14.779,0,26.803-12.023,26.803-26.803v-10.656l5.495-3.243c-0.27,16.159,0.894,27.891-1.48,39.384
			c-0.02,0.1-0.327,1.647-0.308,1.547c-0.493,2.62-1.476,5.971-1.448,5.871c-5.539,20.809-20.62,35.524-19.703,34.549
			c-14.826,15.681-36.028,25.969-59.944,26.259c-0.101,0-1.689,0.003-1.589,0.003c-33.417-0.412-52.423-19.166-53.232-19.492
			c-6.813-5.965-6.942-6.555-7.566-7.154l-0.001,0.001c-0.025-0.026-0.05-0.051-0.073-0.075l0.074,0.074
			c-0.134-0.208-19.979-19.91-22.306-50.571c-0.456-5.721-0.184-7.609-0.275-29.907L175.759,174.897z M256.016,333.917
			l-34.048-37.887c0-0.168,0-7.667,0-7.421c18.731,6.626,34.564,5.656,34.226,5.656c10.2-0.123,19.896-1.862,24.626-3.396
			c2.155-0.696,3.806-0.927,9.244-2.993c0,0.173,0,8.448,0,8.155L256.016,333.917z M264.464,360.65l-3.314,6.825h-10.267
			l-3.315-6.824c0.782-0.574,7.431-5.458,8.449-6.206L264.464,360.65z M144.312,168.579c3.038-2.541,7.259-3.995,11.777-3.756
			v26.195C142.448,191.738,133.87,177.591,144.312,168.579z M188.592,281.813c-22.975,0-41.668-18.692-41.668-41.667v-35.133
			c3.241,0.833,6.775,1.161,9.738,1.004c3.195,30.565,21.229,59.651,50.252,75.796H188.592z M236.247,381.289l-4.777-8.816
			l3.805-2.794l2.843,5.854L236.247,381.289z M224.308,359.119l-22.791-42.16l11.787-8.128l31.599,35.162
			C234.794,351.417,239.192,348.186,224.308,359.119z M256.014,417.777l-9.908-18.289l5.53-17.011h8.761l5.521,16.98
			L256.014,417.777z M275.768,381.236l-1.854-5.703l2.843-5.855l3.764,2.764L275.768,381.236z M287.723,359.119
			c-1.949-1.431-18.246-13.401-20.594-15.126l31.599-35.162l11.787,8.128C302.947,330.96,292.636,350.032,287.723,359.119z"/>
	</g>
</g>
<g>
</g>
<g>
</g>
<g>
</g>
<g>
</g>
<g>
</g>
<g>
</g>
<g>
</g>
<g>
</g>
<g>
</g>
<g>
</g>
<g>
</g>
<g>
</g>
<g>
</g>
<g>
</g>
<g>
</g>
</svg>
