<?xml version="1.0" encoding="iso-8859-1"?>
<!-- Generator: Adobe Illustrator 19.0.0, SVG Export Plug-In . SVG Version: 6.00 Build 0)  -->
<svg version="1.1" id="Capa_1" xmlns="http://www.w3.org/2000/svg" xmlns:xlink="http://www.w3.org/1999/xlink" x="0px" y="0px"
	 viewBox="0 0 512.001 512.001" style="enable-background:new 0 0 512.001 512.001;" xml:space="preserve">
<g>
	<g>
		<path d="M256,0C147.417,0,59.077,88.34,59.077,196.923c0,59.757,26.762,113.376,68.923,149.522v155.709
			c0,3.032,1.397,5.895,3.787,7.761c2.39,1.867,5.507,2.526,8.448,1.791L256,482.765l115.765,28.942
			c0.79,0.197,1.591,0.294,2.389,0.294c2.173,0,4.311-0.72,6.059-2.085c2.39-1.866,3.787-4.729,3.787-7.761v-155.71
			c42.161-36.145,68.923-89.764,68.923-149.522C452.924,88.34,364.584,0,256,0z M256,462.769c-0.801,0-1.604,0.098-2.388,0.294
			l-105.92,26.479V361.381c7.167,4.716,14.627,8.944,22.32,12.673c0.702,0.343,1.409,0.676,2.116,1.01
			c0.335,0.158,0.67,0.314,1.005,0.47c20.019,9.325,41.853,15.379,64.817,17.476c0.059,0.006,0.117,0.011,0.176,0.016
			c1.897,0.171,3.803,0.316,5.715,0.433c0.475,0.03,0.948,0.064,1.424,0.091c0.647,0.034,1.297,0.061,1.946,0.09
			c0.93,0.041,1.86,0.078,2.79,0.106c0.52,0.016,1.04,0.032,1.561,0.043c1.478,0.033,2.957,0.056,4.437,0.056
			c1.481,0,2.959-0.023,4.437-0.056c0.521-0.012,1.041-0.028,1.561-0.043c0.931-0.029,1.862-0.065,2.791-0.106
			c0.649-0.029,1.298-0.055,1.945-0.09c0.477-0.027,0.955-0.062,1.433-0.092c1.909-0.117,3.81-0.261,5.704-0.432
			c0.06-0.006,0.12-0.011,0.18-0.017c17.737-1.62,34.799-5.598,50.873-11.622v32.152c0,5.437,4.409,9.846,9.846,9.846
			c5.437,0,9.846-4.409,9.846-9.846v-40.785c6.765-3.405,13.344-7.196,19.692-11.372v128.161l-105.918-26.48
			C257.604,462.868,256.802,462.769,256,462.769z M333.422,356.325c-19.407,9.413-40.473,15.267-62.076,17.157
			c-0.078,0.006-0.156,0.014-0.233,0.021c-1.04,0.09-2.081,0.165-3.122,0.236c-0.44,0.03-0.88,0.058-1.321,0.084
			c-0.825,0.05-1.65,0.095-2.476,0.134c-0.737,0.033-1.476,0.06-2.215,0.085c-0.603,0.021-1.205,0.044-1.808,0.059
			c-1.386,0.033-2.776,0.053-4.169,0.053c-1.393,0-2.783-0.021-4.168-0.053c-0.604-0.015-1.205-0.038-1.809-0.059
			c-0.738-0.025-1.478-0.051-2.214-0.085c-0.826-0.038-1.652-0.084-2.477-0.134c-0.44-0.027-0.88-0.054-1.32-0.084
			c-1.043-0.071-2.084-0.147-3.125-0.236c-0.077-0.007-0.153-0.014-0.228-0.021c-21.635-1.891-42.729-7.761-62.16-17.197
			c-58.992-28.806-99.729-89.413-99.729-159.362C78.77,99.198,158.275,19.692,256,19.692s177.231,79.506,177.231,177.231
			C433.231,266.904,392.457,327.535,333.422,356.325z"/>
	</g>
</g>
<g>
	<g>
		<path d="M256,39.057c-87.048,0-157.866,70.818-157.866,157.866S168.953,354.789,256,354.789s157.866-70.818,157.866-157.866
			S343.048,39.057,256,39.057z M256,335.097c-76.189,0-138.174-61.984-138.174-138.174S179.811,58.749,256,58.749
			s138.174,61.984,138.174,138.174S332.19,335.097,256,335.097z"/>
	</g>
</g>
<g>
	<g>
		<path d="M343.685,176.296c-1.159-3.564-4.24-6.163-7.948-6.702l-48.996-7.119l-21.911-44.398c-1.659-3.36-5.082-5.488-8.83-5.488
			c-3.748,0-7.171,2.128-8.829,5.488l-21.912,44.398l-48.995,7.119c-3.709,0.54-6.79,3.138-7.949,6.702
			c-1.159,3.564-0.192,7.477,2.492,10.093l35.453,34.558l-8.369,48.799c-0.634,3.694,0.884,7.427,3.917,9.63
			c3.032,2.205,7.052,2.493,10.369,0.75L256,257.087l43.823,23.039c1.44,0.757,3.014,1.13,4.58,1.13
			c2.041,0,4.073-0.635,5.789-1.881c3.032-2.203,4.551-5.935,3.918-9.63l-8.369-48.799l35.453-34.558
			C343.878,183.774,344.843,179.861,343.685,176.296z M288.287,210.46c-2.32,2.263-3.379,5.521-2.832,8.716l5.872,34.236
			l-30.747-16.164c-1.434-0.754-3.008-1.13-4.581-1.13c-1.573,0-3.148,0.377-4.581,1.13l-30.747,16.164l5.872-34.236
			c0.548-3.194-0.511-6.453-2.832-8.716l-24.873-24.245l34.375-4.995c3.207-0.467,5.98-2.481,7.413-5.387L256,144.683l15.372,31.149
			c1.435,2.906,4.206,4.92,7.413,5.387l34.376,4.995L288.287,210.46z"/>
	</g>
</g>
<g>
	<g>
		<path d="M344.419,441.157c-0.118-0.63-0.316-1.251-0.562-1.841c-0.246-0.601-0.551-1.171-0.906-1.702
			c-0.353-0.543-0.767-1.045-1.221-1.498c-0.453-0.453-0.955-0.866-1.497-1.221c-0.532-0.364-1.103-0.66-1.703-0.906
			c-0.591-0.246-1.21-0.443-1.84-0.571c-1.27-0.246-2.57-0.246-3.84,0c-0.63,0.128-1.25,0.325-1.851,0.571
			c-0.592,0.246-1.162,0.542-1.694,0.906c-0.543,0.354-1.045,0.768-1.498,1.221c-0.453,0.453-0.866,0.955-1.231,1.498
			c-0.354,0.532-0.65,1.102-0.896,1.702c-0.246,0.591-0.443,1.211-0.571,1.841s-0.186,1.28-0.186,1.92c0,2.59,1.053,5.13,2.885,6.96
			c0.453,0.453,0.955,0.867,1.498,1.221c0.532,0.354,1.102,0.66,1.694,0.906c0.601,0.246,1.221,0.443,1.851,0.561
			c0.63,0.128,1.28,0.197,1.92,0.197c0.639,0,1.29-0.069,1.92-0.197c0.63-0.118,1.25-0.315,1.84-0.561
			c0.601-0.246,1.172-0.551,1.703-0.906c0.542-0.353,1.044-0.768,1.497-1.221c0.454-0.453,0.867-0.955,1.221-1.497
			c0.354-0.532,0.66-1.103,0.906-1.703c0.246-0.591,0.443-1.21,0.561-1.84c0.128-0.631,0.197-1.281,0.197-1.92
			C344.616,442.437,344.547,441.786,344.419,441.157z"/>
	</g>
</g>
<g>
</g>
<g>
</g>
<g>
</g>
<g>
</g>
<g>
</g>
<g>
</g>
<g>
</g>
<g>
</g>
<g>
</g>
<g>
</g>
<g>
</g>
<g>
</g>
<g>
</g>
<g>
</g>
<g>
</g>
</svg>
