<?xml version="1.0" encoding="iso-8859-1"?>
<!-- Generator: Adobe Illustrator 19.0.0, SVG Export Plug-In . SVG Version: 6.00 Build 0)  -->
<svg version="1.1" id="Capa_1" xmlns="http://www.w3.org/2000/svg" xmlns:xlink="http://www.w3.org/1999/xlink" x="0px" y="0px"
	 viewBox="0 0 380 380" style="enable-background:new 0 0 380 380;" xml:space="preserve">
<g>
	<g>
		<path d="M340.8,57.6H324V41.2c0-14-11.2-25.2-25.2-25.2s-25.2,11.2-25.2,25.2v16.4H106.4V41.2c0-14-11.2-25.2-25.2-25.2
			S56,27.2,56,41.2v16.4H39.2C17.6,57.6,0,75.2,0,96.8v228C0,346.4,17.6,364,39.2,364h301.6c21.6,0,39.2-17.6,39.2-39.2v-228
			C380,75.2,362.4,57.6,340.8,57.6z M286.8,41.2c0-6.8,5.2-12,12-12s12,5.2,12,12v46c0,6.8-5.2,12-12,12s-12-5.2-12-12V41.2z
			 M69.2,41.2c0-6.8,5.2-12,12-12s12,5.2,12,12v46c0,6.8-5.2,12-12,12s-12-5.2-12-12V41.2z M340.8,350.8H39.2
			c-14.4,0-26.4-11.6-26.4-26.4v-190h354v190.4C367.2,339.2,355.2,350.8,340.8,350.8z M367.2,121.6H12.8V97.2
			c0-14.8,12-26.4,26.4-26.4H56v16.4c0,14,11.2,25.2,25.2,25.2s25.2-11.2,25.2-25.2V70.8h167.2v16.4c0,14,11.2,25.2,25.2,25.2
			S324,101.2,324,87.2V70.8h16.8c14.4,0,26.4,11.6,26.4,26.4V121.6z"/>
	</g>
</g>
<g>
	<g>
		<path d="M190,167.2c-38.4,0-69.6,31.2-69.6,69.6c0,38.4,31.2,69.6,69.6,69.6s69.6-31.2,69.6-69.6
			C259.6,198.4,228.4,167.2,190,167.2z M190,293.2c-31.2,0-56.4-25.2-56.4-56.4s25.2-56.4,56.4-56.4s56.4,25.2,56.4,56.4
			C246.4,268,221.2,293.2,190,293.2z"/>
	</g>
</g>
<g>
	<g>
		<path d="M230.8,215.6c-2.4-3.6-6.8-4.4-9.6-2L174.4,250l-14.8-24c-2-3.2-6-4-9.2-2c-3.2,2-4,6-2,9.2l18.8,30.4
			c0.8,1.6,2.4,2.8,4.4,3.2c0.4,0,0.8,0,1.2,0c1.6,0,2.8-0.4,4-1.2l52.8-40.8C232.4,222.4,232.8,218.4,230.8,215.6z"/>
	</g>
</g>
<g>
</g>
<g>
</g>
<g>
</g>
<g>
</g>
<g>
</g>
<g>
</g>
<g>
</g>
<g>
</g>
<g>
</g>
<g>
</g>
<g>
</g>
<g>
</g>
<g>
</g>
<g>
</g>
<g>
</g>
</svg>
